#define bstack_width 15
#define bstack_height 13
static unsigned char bstack_bits[] = {
   0x00, 0x00, 0x00, 0x00, 0x00, 0x00, 0xf8, 0x0f, 0xf8, 0x0f, 0xf8, 0x0f,
   0x00, 0x00, 0x78, 0x0f, 0x78, 0x0f, 0x78, 0x0f, 0x00, 0x00, 0x00, 0x00,
   0x00, 0x00 };
