#define chat_width 15
#define chat_height 13
static unsigned char chat_bits[] = {
   0x00, 0x00, 0x00, 0x00, 0x00, 0x00, 0xb8, 0x0b, 0xb8, 0x0b, 0xb8, 0x0b,
   0x00, 0x08, 0xb8, 0x0b, 0xb8, 0x0b, 0xb8, 0x0b, 0x00, 0x00, 0x00, 0x00,
   0x00, 0x00 };
