#define float2_width 15
#define float2_height 13
static unsigned char float2_bits[] = {
   0x00, 0x00, 0x00, 0x00, 0x00, 0x00, 0xf8, 0x00, 0xf8, 0x00, 0xf8, 0x00,
   0xf8, 0x0f, 0x80, 0x0f, 0x80, 0x0f, 0x80, 0x0f, 0x00, 0x00, 0x00, 0x00,
   0x00, 0x00 };
