#define grid_width 15
#define grid_height 13
static unsigned char grid_bits[] = {
   0x00, 0x00, 0x00, 0x00, 0x00, 0x00, 0x78, 0x0f, 0x78, 0x0f, 0x78, 0x0f,
   0x00, 0x00, 0x78, 0x0f, 0x78, 0x0f, 0x78, 0x0f, 0x00, 0x00, 0x00, 0x00,
   0x00, 0x00 };
