#define monocle_width 15
#define monocle_height 13
static unsigned char monocle_bits[] = {
   0x00, 0x00, 0x00, 0x00, 0x00, 0x00, 0xf8, 0x0f, 0xf8, 0x0f, 0xf8, 0x0f,
   0xf8, 0x0f, 0xf8, 0x0f, 0xf8, 0x0f, 0xf8, 0x0f, 0x00, 0x00, 0x00, 0x00,
   0x00, 0x00 };
