#define monocle__width 15
#define monocle__height 13
static unsigned char monocle__bits[] = {
   0x00, 0x00, 0x00, 0x00, 0x00, 0x00, 0xf8, 0x0f, 0xf8, 0x0f, 0x18, 0x0d,
   0x58, 0x0d, 0x58, 0x0c, 0xf8, 0x0f, 0xf8, 0x0f, 0x00, 0x00, 0x00, 0x00,
   0x00, 0x00 };
