#define monocle4_width 15
#define monocle4_height 13
static unsigned char monocle4_bits[] = {
   0x00, 0x00, 0x00, 0x00, 0x00, 0x00, 0xf8, 0x0f, 0xd8, 0x0d, 0xd8, 0x0d,
   0x18, 0x0c, 0xf8, 0x0d, 0xf8, 0x0d, 0xf8, 0x0f, 0x00, 0x00, 0x00, 0x00,
   0x00, 0x00 };
