#define monocle5_width 15
#define monocle5_height 13
static unsigned char monocle5_bits[] = {
   0x00, 0x00, 0x00, 0x00, 0x00, 0x00, 0xf8, 0x0f, 0x18, 0x0c, 0xd8, 0x0f,
   0x18, 0x0c, 0xf8, 0x0d, 0x18, 0x0c, 0xf8, 0x0f, 0x00, 0x00, 0x00, 0x00,
   0x00, 0x00 };
