#define monocle1_width 15
#define monocle1_height 13
static unsigned char monocle1_bits[] = {
   0x00, 0x00, 0x00, 0x00, 0x00, 0x00, 0xf8, 0x0f, 0x38, 0x0f, 0x78, 0x0f,
   0x78, 0x0f, 0x78, 0x0f, 0x78, 0x0f, 0xf8, 0x0f, 0x00, 0x00, 0x00, 0x00,
   0x00, 0x00 };
