#define tile_width 16
#define tile_height 14
static unsigned char tile_bits[] = {
   0x00, 0x00, 0x00, 0x00, 0x00, 0x00, 0x00, 0x00, 0x78, 0x0f, 0x78, 0x0f,
   0x78, 0x0f, 0x78, 0x00, 0x78, 0x0f, 0x78, 0x0f, 0x78, 0x0f, 0x00, 0x00,
   0x00, 0x00, 0x00, 0x00 };
