#define float_width 12
#define float_height 13
static unsigned char float_bits[] = {
   0x00, 0x00, 0x00, 0x00, 0xbc, 0x03, 0xbc, 0x03, 0xbc, 0x03, 0xbc, 0x03,
   0x80, 0x03, 0xfc, 0x03, 0xfc, 0x03, 0xfc, 0x03, 0x00, 0x00, 0x00, 0x00,
   0x00, 0x00 };
